<svg xmlns="http://www.w3.org/2000/svg" version="1.1" xmlns:xlink="http://www.w3.org/1999/xlink" width="150" height="150"><svg width="150" height="150" viewBox="0 0 150 150" fill="none" xmlns="http://www.w3.org/2000/svg">
<rect width="150" height="150" rx="32" fill="white"></rect>
<path d="M82.1014 19.2616C100.01 21.4835 115.829 32.6373 124.317 49.0791C128.405 56.9445 130.538 65.8764 130.538 74.5861C130.494 78.6744 129.916 84.4068 129.472 84.8512C129.338 85.0289 127.072 84.0957 124.45 82.8959C121.784 81.6517 118.451 80.1852 116.94 79.6075L114.274 78.5411L114.23 74.3195C114.096 63.0324 110.097 53.745 101.92 45.6574C97.0323 40.8138 93.4329 38.5919 86.7673 36.2811C83.4345 35.1258 82.7235 35.0369 75.8802 34.9925C67.6148 34.9925 65.0819 35.4813 59.4828 38.1475C49.5288 42.8579 41.7523 51.8342 38.1084 62.8547C34.9978 72.3643 36.4643 86.3176 41.4857 94.8495C42.33 96.316 42.9966 97.6047 42.9077 97.6491C41.7523 98.6267 34.8645 102.937 32.3316 104.226C28.4655 106.226 28.9988 106.492 25.9326 100.582C23.6219 96.0494 21.9333 90.8502 20.9556 85.2511C19.978 79.652 20.3335 67.2095 21.6222 62.0992C24.4662 50.6344 29.3543 42.1469 37.6641 34.1482C45.6628 26.5049 54.4169 21.8835 64.7264 19.9282C69.3035 19.0395 77.8799 18.7284 82.1014 19.2616Z" fill="black"></path>
<path d="M101.965 83.207C107.519 84.0068 114.229 86.3176 123.739 90.7169L127.783 92.6277L126.938 95.0717C126.494 96.4048 125.339 99.0711 124.361 101.026C114.718 120.268 94.5436 132.132 73.2137 131.066C64.4595 130.622 57.0829 128.622 49.3953 124.534L45.3515 122.401L43.0852 123.689C37.3527 126.978 29.2207 129.333 22.9995 129.511L19.2223 129.644L19.089 122.267L19.0001 114.891L22.8662 114.624C31.4426 114.002 37.7082 110.847 52.2392 99.9598C65.3927 90.0947 71.9694 86.6731 82.4566 84.2735C87.7891 83.0736 97.2987 82.5404 101.965 83.207ZM87.2114 97.6935C80.2348 99.1155 73.658 101.96 67.2146 106.27C61.971 109.825 59.527 111.913 60.1047 112.491C60.3713 112.713 62.3265 113.469 64.5484 114.091C74.5468 117.024 85.3451 115.557 94.6769 110.003C98.4541 107.781 107.208 99.6043 106.853 98.6267C106.497 97.4713 99.7872 96.5382 94.3214 96.8492C92.0995 96.9381 88.9 97.338 87.2114 97.6935Z" fill="black"></path>
</svg><style>@media (prefers-color-scheme: light) { :root { filter: none; } }
@media (prefers-color-scheme: dark) { :root { filter: none; } }
</style></svg>