<svg width="235" height="235" viewBox="0 0 235 235" fill="none" xmlns="http://www.w3.org/2000/svg">
<g opacity="0.31">
<circle cx="117.5" cy="117.5" r="117.5" fill="#D9D9D9"/>
<path d="M90.292 68.5C90.3849 68.5002 90.5226 68.5006 90.7021 68.501C91.0618 68.5017 91.5893 68.5026 92.2607 68.5039C93.6037 68.5066 95.5229 68.511 97.8271 68.5156C102.436 68.5249 108.586 68.5374 114.75 68.5498C125.685 68.5718 136.669 68.592 139.168 68.5967L166.5 95.9287V166.077C166.5 173.065 160.834 178.73 153.846 178.73H90.1543C83.1663 178.73 77.5001 173.065 77.5 166.077V81.1543C77.5 74.2755 82.9901 68.6772 89.8271 68.5039L90.1543 68.5H90.292ZM138.192 88.2305C138.192 92.9654 142.035 96.8076 146.77 96.8076H164.544L138.192 70.4561V88.2305Z" stroke="black" stroke-width="3"/>
</g>
</svg>
